inDegrees=no
num_controls=7
num_derivatives=13
num_iterations=162
num_multipliers=7
num_parameters=0
num_slacks=7
num_states=26
objective=4.357337
objective_accelerations=0.228804
objective_balance=0.023983
objective_effort=0.321338
objective_height=3.733712
objective_ligament=0.049500
solver_duration=1490.942285
status=Solve_Succeeded
success=true
DataType=double
version=3
OpenSimVersion=4.4-2022-07-23-0e9fedc
endheader
time	/jointset/ground_pelvis/pelvis_tilt/value	/jointset/ground_pelvis/pelvis_tx/value	/jointset/ground_pelvis/pelvis_ty/value	/jointset/hip_l/hip_flexion_l/value	/jointset/hip_l/hip_adduction_l/value	/jointset/hip_l/hip_rotation_l/value	/jointset/back/lumbar_extension/value	/jointset/patellofemoral_l/patellar_flexion_l/value	/jointset/knee_l/knee_flexion_l/value	/jointset/knee_l/knee_adduction_l/value	/jointset/knee_l/knee_rotation_l/value	/jointset/ankle_l/ankle_angle_l/value	/jointset/subtalar_l/subtalar_angle_l/value	/jointset/ground_pelvis/pelvis_tilt/speed	/jointset/ground_pelvis/pelvis_tx/speed	/jointset/ground_pelvis/pelvis_ty/speed	/jointset/hip_l/hip_flexion_l/speed	/jointset/hip_l/hip_adduction_l/speed	/jointset/hip_l/hip_rotation_l/speed	/jointset/back/lumbar_extension/speed	/jointset/patellofemoral_l/patellar_flexion_l/speed	/jointset/knee_l/knee_flexion_l/speed	/jointset/knee_l/knee_adduction_l/speed	/jointset/knee_l/knee_rotation_l/speed	/jointset/ankle_l/ankle_angle_l/speed	/jointset/subtalar_l/subtalar_angle_l/speed	/forceset/tau_hip_flexion_l	/forceset/tau_hip_adduction_l	/forceset/tau_hip_rotation_l	/forceset/tau_knee_flexion_l	/forceset/tau_ankle_angle_l	/forceset/tau_subtalar_angle_l	/forceset/tau_lumbar_extension	lambda_cid13_p0	lambda_cid13_p1	lambda_cid13_p2	lambda_cid13_p3	lambda_cid13_p4	lambda_cid13_p5	lambda_cid14_p0	/jointset/ground_pelvis/pelvis_tilt/accel	/jointset/ground_pelvis/pelvis_tx/accel	/jointset/ground_pelvis/pelvis_ty/accel	/jointset/hip_l/hip_flexion_l/accel	/jointset/hip_l/hip_adduction_l/accel	/jointset/hip_l/hip_rotation_l/accel	/jointset/back/lumbar_extension/accel	/jointset/patellofemoral_l/patellar_flexion_l/accel	/jointset/knee_l/knee_flexion_l/accel	/jointset/knee_l/knee_adduction_l/accel	/jointset/knee_l/knee_rotation_l/accel	/jointset/ankle_l/ankle_angle_l/accel	/jointset/subtalar_l/subtalar_angle_l/accel	gamma_cid13_p0	gamma_cid13_p1	gamma_cid13_p2	gamma_cid13_p3	gamma_cid13_p4	gamma_cid13_p5	gamma_cid14_p0
0.5	0.03926597424692684	0.01676369838731634	0.8614859826505733	0.5932348349834986	-0.3306546679244847	-0.1257826877808782	-0.7559746973234371	0.7725162314528828	0.7725162314526065	-0.1237027270355946	-0.174531174273367	0.1958466254029831	0.030517824622405	0.2264134907035343	-0.05365334249725336	-0.2190618454458357	0.6937882622322801	-0.0589614048604556	0.4427127416688891	-0.8485704676840061	1.387461058037414	1.387461058037335	0.1071619598995644	-1.450967767294269e-05	0.5653331924298375	0.1404190049600123	-0.1669301981568647	0.0252485405715623	-0.004089904667062893	-0.2502280232295447	0.03337671693959583	0.04235366637359098	0.2630895353792565	-33.2176308208727	-15.50143570734805	5.356276950474594	-2.168810397169135	-701.021088413927	-82.4425701422275	-15.47705102078425	-0.01213931831691113	0.3289560115199827	-0.1318925534231127	-0.9495316892357503	0.1840771118645585	-0.425739341688613	1.326700022868726	-1.110264804598317	-1.110264804598346	-0.2209253773281505	0.009427143222862613	-0.210085213656764	0.2260918940416062	-3.398736877539799e-08	-3.326236935399081e-07	1.354836658811206e-07	-4.024205218611887e-08	-4.311903963858993e-08	-2.148776289250536e-07	-4.329425790109727e-08
0.51	0.04152906057472622	0.0162436151433433	0.8592892476301981	0.6001242768481265	-0.3312352941213073	-0.1213776368252697	-0.7643929034224924	0.7863332344446862	0.7863332344446042	-0.122642475761094	-0.1745312621396659	0.2014884981767658	0.03193277464862167	0.2261752387614663	-0.05036249244805524	-0.2202336813892748	0.6839896157921994	-0.05716844091515728	0.4382405830362175	-0.8349701674915901	1.37573339476868	1.375733394768593	0.1048784477184504	-5.250487051150471e-06	0.5629578167762938	0.1425406636551455	-0.1698597206449547	0.026140791955299	-0.004162567385373355	-0.2534135013041211	0.03063080616578971	0.04255997786480414	0.2670459304455971	-34.22627118268519	-15.40207461481729	5.326321741931811	-1.77823584900522	-703.6104507134489	-82.41960026478375	-14.97912801768395	-0.03395067517903871	0.3292640337129302	-0.1021156262767013	-1.011607291088511	0.1762220908931204	-0.466524961644147	1.391782713157565	-1.234930592971918	-1.234930592973123	-0.233581316383518	-0.003630913304637534	-0.2638051922796847	0.2006849967937206	-3.145660422875873e-08	-2.868004496792747e-07	1.37970866667605e-07	-3.557944654959114e-08	-3.775503097551787e-08	-1.946454327943844e-07	-3.975598904194978e-08
0.52	0.04378890787448807	0.01575646330628025	0.8570823369480938	0.6069124170144047	-0.3317981274676699	-0.1170190216235031	-0.7726720889804801	0.800026778102813	0.8000267781029248	-0.1216053630439776	-0.1745313186581217	0.2071041089037982	0.03336803768969862	0.2257656850983436	-0.04706706111525553	-0.2210969777916289	0.673527922564344	-0.05540283476863809	0.4334255909000372	-0.8207663594699613	1.362769191301509	1.362769191301414	0.1025342484221181	-8.240107888950731e-06	0.5600807830796899	0.1444816079320601	-0.1727892431330547	0.02703304333904656	-0.004235230103658102	-0.2565989793787008	0.0278848953919887	0.04276628935603257	0.2710023255119264	-35.23756707411977	-15.30225652969034	5.296303133374177	-1.409834985467463	-706.2594794230347	-82.41482235493272	-14.47894160215219	-0.0463996625276837	0.3298722682402593	-0.07018464520610011	-1.082141046790785	0.1786055521087551	-0.4943060423903526	1.447401588711417	-1.357572844285651	-1.357572844285639	-0.2330628003717693	0.00697738093093709	-0.3104168222688023	0.1899490103978963	-2.834288121756173e-08	-2.424985898701391e-07	1.366047580072975e-07	-3.124263459735698e-08	-3.223455960565061e-08	-1.728150282283222e-07	-3.594673899683473e-08
0.53	0.04604380583184597	0.01530226390114013	0.8548683492244312	0.6135927207101884	-0.3323434310695922	-0.11271007887934	-0.7808063010044644	0.8135846185566684	0.8135846185567436	-0.120592013145658	-0.1745313213904908	0.2126884961188595	0.03482182115010128	0.2251873504870819	-0.04377440547427469	-0.2216470873163658	0.662425847406466	-0.05366399377410262	0.4283123041069793	-0.8059857283811991	1.348600216351372	1.348600216351352	0.1001242553629715	7.804385391416525e-06	0.556715749908547	0.1462423318430016	-0.1755870654633405	0.02793902341345489	-0.004315191220260937	-0.2598247134680634	0.02516065479133427	0.04288869532267079	0.2748352790662101	-36.24486955844274	-15.16034024934459	5.252311087316928	-1.002569155041156	-708.876752911039	-82.3463695415485	-13.97704695294922	-0.06753625197856948	0.3287185847826503	-0.03940802940043379	-1.140288456303819	0.1706052169000681	-0.5274714431470977	1.506941411199421	-1.476355499040167	-1.476355499028959	-0.2467159046603679	-0.001043453957163382	-0.3616895453851517	0.1642399606960297	-2.156907469973684e-08	-2.095004068106019e-07	1.082219581736272e-07	-3.073890795439647e-08	-2.319946771590625e-08	-1.452370369450901e-07	-2.997369548879808e-08
0.54	0.04829212326477153	0.0148809423269603	0.8526504636208626	0.620158794113182	-0.332871529892811	-0.1084537952921824	-0.7887899972091151	0.8269948101252976	0.8269948101253281	-0.1196031128471334	-0.1745311559654308	0.2182368044060404	0.03629223302546426	0.224449580213725	-0.04049149492319858	-0.2218765537728441	0.6506818640078808	-0.05196187902861139	0.4228937594985803	-0.7906631956027754	1.333239414254737	1.333239414254791	0.09764432846485836	2.539137932021098e-05	0.5528649975034796	0.1478072909240931	-0.1783848877936333	0.02884500348788144	-0.004395152336935297	-0.2630504475574226	0.02243641419068738	0.04301110128933303	0.2786682326204833	-37.2559911935081	-15.01744060274308	5.20780316314923	-0.6132743463767435	-711.5673528110831	-82.29620869198702	-13.47411127145536	-0.07828679494660913	0.3279232502592859	-0.00605603155435908	-1.210522694932335	0.1712603022999108	-0.555357605458609	1.555781926643843	-1.595938273585353	-1.59593827358535	-0.2470495681650548	0.007285881060594997	-0.4075606690537247	0.1507960444278863	-1.074581408947254e-08	-1.89008419303812e-07	4.994835108432109e-08	-3.447604165361109e-08	-1.027585950629782e-08	-1.113000135492444e-07	-2.160666772391196e-08
0.55	0.05053223542549831	0.01449237399699183	0.8504318998730167	0.6266043399707751	-0.3333827310170221	-0.1042533691014293	-0.796617843833708	0.840245533237812	0.8402455332378846	-0.1186390944846496	-0.1745308475994587	0.2237442179825504	0.03777739089342522	0.2235451568884906	-0.03722628143696041	-0.2217807637426966	0.6383252333266599	-0.05028558216637515	0.417138357310621	-0.7748265165201812	1.316710119449351	1.316710119449347	0.09515072253545931	3.359912202728293e-05	0.5485367081631695	0.1491884517773666	-0.1809866000717589	0.02963491467811118	-0.004482904899226285	-0.2663752918300872	0.01979364090476229	0.04313069032988481	0.2823234953519001	-38.23962282592637	-14.87702828825675	5.162432100008799	-0.2022273128255537	-714.2045517997359	-82.28259618115803	-12.97089729624921	-0.1006753363633042	0.3251965398930798	0.02571068303244064	-1.26354462073506	0.1647422180269259	-0.593616424954498	1.609552818780097	-1.710684995347611	-1.710684995356382	-0.2518350248562695	-0.002813845224754914	-0.457619636711855	0.126427389493359	-3.295349407127209e-09	-1.635553888599338e-07	1.333593286949351e-08	-3.521833614516224e-08	-1.345334013387064e-09	-8.380150827753238e-08	-1.533865024405139e-08
0.5600000000000001	0.05276247230595235	0.0141363330303025	0.848215956858019	0.6329232572483425	-0.333877383604643	-0.1001120939124486	-0.8042849352835346	0.8533251114200114	0.8533251114201215	-0.1177002759653696	-0.1745305375692736	0.22920591735162	0.03927529062666252	0.2224745241612269	-0.03398602226737342	-0.2213524072032524	0.6253561480047078	-0.04865217171048804	0.4110635591430669	-0.7585121606490437	1.299010428190673	1.299010428190611	0.09260435982490497	2.572422071256576e-05	0.543722156015172	0.150355663979291	-0.1835883123498941	0.03042482586835948	-0.004570657461573067	-0.2697001361027481	0.01715086761884902	0.04325027937047436	0.2859787580833042	-39.22813130877323	-14.73543513639675	5.116499582773458	0.1960426623626189	-716.9274377663572	-82.28435096885559	-12.46826592529587	-0.1115286753523454	0.322932386929032	0.06045727030499037	-1.333013623078682	0.1626830210300849	-0.6192368013776348	1.651317284352648	-1.830017564243627	-1.830017564243574	-0.2576009243960878	0.004069352256192206	-0.5048132305911953	0.1080063141580462	1.077601617155043e-10	-1.321491068915496e-07	2.716941304039311e-09	-3.236682358751731e-08	2.793492219486657e-09	-6.402922475478047e-08	-1.158944510622142e-08
0.5700000000000001	0.05498118726224877	0.01381254050923032	0.8460059677060111	0.6391094996329283	-0.3343558972210653	-0.0960330433260024	-0.8117865940746962	0.8662219432281498	0.8662219432282133	-0.1167871712353801	-0.1745302818751718	0.2346170752859251	0.0407838090444481	0.2212425873402618	-0.03077946406416667	-0.2205889729218684	0.6117950532366047	-0.04705890233161863	0.4046996938154907	-0.7417501961860673	1.280168066253511	1.280168066253492	0.09000526311966718	2.491067425695558e-05	0.5384295899303091	0.1513091595110501	-0.1860675011995281	0.03122433880964198	-0.004663378005135439	-0.2729618290111678	0.01443483340388794	0.04332890290988053	0.2894923718842545	-40.23742218784908	-14.56905082863182	5.06277540436186	0.6517454489863843	-719.5494294073624	-82.24892914512556	-11.96714976946444	-0.1329089937625165	0.3184640686482111	0.09275507546842207	-1.382248856939593	0.1564070767035982	-0.6520002588268726	1.699046237201235	-1.939523692336948	-1.939523692330565	-0.2627795516312535	-0.002235100596716279	-0.5534573462364383	0.08321051953021893	2.974006903028548e-09	-9.514612420441932e-08	-1.362579829452199e-09	-2.822862689831988e-08	6.344481624339168e-09	-4.298864493629858e-08	-8.217270176599668e-09
0.58	0.05718680628867168	0.01352060287651588	0.8438053066104997	0.6451572127791748	-0.3348187265076118	-0.09201903916491182	-0.8191185511792438	0.8789247157801452	0.8789247157801564	-0.1159004005740654	-0.1745300499950198	0.2399729117496221	0.04230070028692115	0.2198553381875653	-0.02761504459582341	-0.2194867959039897	0.597650300337955	-0.04551530573723168	0.3980542740727488	-0.7245718233258213	1.260198576960969	1.260198576960993	0.08733754609268966	2.096142778961596e-05	0.5326578618933429	0.1520302289166241	-0.1885466900491753	0.032023851750941	-0.004756098548746862	-0.2762235219195875	0.0117187991889344	0.0434075264493106	0.2930059856851908	-41.25232602332495	-14.40117845447088	5.008237018193583	1.098397351401518	-722.2645750552654	-82.22790190695288	-11.46852123535222	-0.1425911416985133	0.3145046399563212	0.1282058176039313	-1.449745249188084	0.1527484641335912	-0.6755476844108057	1.734598963806715	-2.055443035319672	-2.055443035319675	-0.2713249887440038	0.003442212253820573	-0.6006456210118462	0.06152108892100328	5.141083450349461e-09	-5.085441499985286e-08	3.074418669379469e-09	-2.241474854942625e-08	9.129916090373353e-09	-2.029633040709887e-08	-5.336111332086317e-09
0.59	0.05937777881054748	0.01326009642719464	0.8416173558018422	0.6510606641850016	-0.3352663174693407	-0.08807284327219091	-0.826276729954749	0.8914223308495262	0.8914223308494963	-0.115040523889281	-0.1745297857952153	0.24526874356753	0.04382372593543354	0.2183143434170848	-0.02449341296906376	-0.2180470095063012	0.5829491263834331	-0.04400899186170693	0.3911277107591137	-0.7070042972459644	1.239150500373396	1.239150500373398	0.08464296579574114	2.582709973037816e-05	0.5264370650152984	0.1525404648970637	-0.1907817542154024	0.03272460714317834	-0.004858245540215023	-0.2795947831977162	0.009257544716729264	0.04344776592806713	0.2962954536721073	-42.17761697547145	-14.2285121757627	4.948577321294847	1.490319170685288	-724.8243463053253	-82.21070457190389	-10.97336850786895	-0.1635781606941038	0.3099134671826421	0.1603206514060229	-1.49393216326929	0.1486586138447074	-0.7097928059748532	1.776774609798352	-2.155579722201716	-2.155579722204957	-0.2677521672773067	-0.001898292791828163	-0.6435117372271086	0.0406125490254922	1.000863724471596e-09	1.309215941935015e-08	5.835961487540805e-08	-8.954628698917602e-09	4.253981995481942e-09	-3.149044262021124e-09	-6.89478647297002e-09
